PathFileType	4	(X/Y/Z)	10_1_31_p1_0-343.trc
DataRate	CameraRate	NumFrames	NumMarkers	Units	OrigDataRate	OrigDataStartFrame	OrigNumFrames
59.0	59.0	6	27	m	59.0	258	344
Frame#	Time	RHip			RKnee			RAnkle			RBigToe			RSmallToe			RHeel			LHip			LKnee			LAnkle			LBigToe			LSmallToe			LHeel			Neck			Head			Nose			RShoulder			RElbow			RWrist			RThumb			RIndex			RPinky			LShoulder			LElbow			LWrist			LThumb			LIndex			LPinky			
		X1	Y1	Z1	X2	Y2	Z2	X3	Y3	Z3	X4	Y4	Z4	X5	Y5	Z5	X6	Y6	Z6	X7	Y7	Z7	X8	Y8	Z8	X9	Y9	Z9	X10	Y10	Z10	X11	Y11	Z11	X12	Y12	Z12	X13	Y13	Z13	X14	Y14	Z14	X15	Y15	Z15	X16	Y16	Z16	X17	Y17	Z17	X18	Y18	Z18	X19	Y19	Z19	X20	Y20	Z20	X21	Y21	Z21	X22	Y22	Z22	X23	Y23	Z23	X24	Y24	Z24	X25	Y25	Z25	X26	Y26	Z26	X27	Y27	Z27	
258	4.372881355932203	0.29530739594048383	0.5003344652277568	1.0389650951781093	0.27989099876498663	0.5036869499672779	1.4233749058455032	0.269357294029358	0.7481456653843312	1.7899865380765614	0.2806161813338012	0.6002708266571002	1.8521755608862855	0.3334837227714502	0.6329963369116463	1.834752921069399	0.2499913774683867	0.8406200110297278	1.8447875079019986	0.1170227329409867	0.47580564683514837	1.014045030530905	0.10322483389358451	0.46620949144767104	1.4076783495926133	0.07973637979210792	0.7182728348746799	1.7669714441093132	0.09089549390537113	0.6030436719627704	1.8697707352174089	0.04348544210361191	0.6345166460734422	1.847555013548728	0.09111927601744377	0.8030789082043673	1.8224026362337022	0.20167683962166572	0.43256881827670046	0.4973392463443919	0.1812477718776947	0.2716244787773706	0.2824431056949893	0.15572413603139748	0.29881224705605197	0.45151458202174866	0.32909828831393156	0.3886003779039629	0.546877824507931	0.2729700965069527	0.3561787803139396	0.7975399554400434	0.093036084931781	0.34772654332400343	0.6745185929216093	0.035387689305196667	0.40490715742445293	0.5807795437671907	0.04164581753817023	0.415464386767066	0.5849043612381725	0.041294810774493665	0.3948517727775484	0.6263554552715754	0.07948629040993863	0.45071711869701586	0.5044039882883731	0.06661533352812096	0.45287722991520885	0.778485608743322	0.23486275948512197	0.40229050285061496	0.715518283227172	0.30337551459071216	0.31356677991851334	0.6334976103520674	0.31198214841390304	0.35216973166016985	0.6258416086531746	0.2683815535072017	0.41707993229629786	0.7210446803623741
259	4.389830508474576	0.3000784979715359	0.5043277594520974	1.0431498416608003	0.28490432999702486	0.4898067349818662	1.4195874930270418	0.26936326359027796	0.7482008839148263	1.7900039244824515	0.28053752146705413	0.6001235911146122	1.8523145913737522	0.33110428249421303	0.6226008417394991	1.8345984464599243	0.25096434003231577	0.8439087178467434	1.8485319563339415	0.12207600838493822	0.47854935896251394	1.0148689702098117	0.10391296588013284	0.46867418474252104	1.411807185757462	0.0797621396106033	0.7183800179222383	1.766960065974736	0.09079742956655505	0.6030477212862245	1.8696158767538675	0.04351683393127028	0.6345312636539027	1.8475364594356696	0.09109850554566555	0.8034482732469566	1.8225096257845352	0.2018442162583008	0.43274181077844737	0.49738245459714914	0.18332807022462147	0.2834870243152926	0.27724767452138216	0.16078344974742875	0.2869132514578609	0.4521885051928519	0.3295781540152673	0.3905129401231768	0.5504360754710882	0.27722027016661066	0.35685742449875946	0.7973472674325575	0.0969855892223377	0.34973610326272325	0.6742485122005124	0.04329337241707433	0.402958743367653	0.5726180782796906	0.03676352750195785	0.38810698360079643	0.5832503089206127	0.04070063971752253	0.39260160952410694	0.6223384670095039	0.07964851184451244	0.45084284439448946	0.5045178226798547	0.07098180560707477	0.4619085425454729	0.7799460947058016	0.2331460963041769	0.3940815903700949	0.7171480232703304	0.29774468242243746	0.29136394934227244	0.6312412858156032	0.3122011396756321	0.3528211762793996	0.626745934136367	0.27236298364232747	0.42029843017354585	0.7243772227634616
260	4.406779661016949	0.2963001456343795	0.5166495856220161	1.0451420760191352	0.2850344658688399	0.48958215689156415	1.4195226400742236	0.2693340994546069	0.7476984345901987	1.7902602580256775	0.28050516241261125	0.6001148958503166	1.852723203877964	0.33394711924749326	0.6328693227092761	1.8359787381100234	0.2500745308634407	0.8405505326144792	1.8451390903898162	0.11857399897907916	0.4764688449038454	1.0183680558992347	0.10392775781858869	0.46872161775590343	1.4118731521554748	0.07939020736221457	0.7232237820825178	1.777630055846365	0.09121141229297006	0.6022021608208481	1.8696524127497764	0.04946702827449878	0.620214542222973	1.8418970924918217	0.08955189728197623	0.8044360657414236	1.8271741602738318	0.2018622592810439	0.43240492119826696	0.49737540756793874	0.1833250992221496	0.28333865295711685	0.27702295586123793	0.1606428363987347	0.28731183782819286	0.44852167143604516	0.32917695222362675	0.3885171638830563	0.5467621444218378	0.28444844556676036	0.3681802288095541	0.7941847490657993	0.0993513286648575	0.361952680888204	0.674242945063858	0.04090480949051699	0.39283275542345886	0.5808665601805703	0.03661531678652721	0.39112935084170175	0.5975531739271238	0.039616645054360855	0.38233954893268024	0.6339400865987314	0.07920158094824845	0.45179864713040674	0.5049186024839885	0.06746211154887112	0.4538970822398339	0.7734001343706751	0.23571302975453529	0.4077510134889462	0.7234064137166368	0.30959426080332614	0.33269094684345557	0.6363837720344622	0.3122971500131402	0.3527305866772204	0.6262100868270699	0.2763444137774532	0.42351692805079383	0.7277097651645492
261	4.423728813559322	0.3011111944710996	0.5023337738664709	1.0430424044144604	0.2850690088429934	0.48961509936145664	1.4196072983303272	0.2656298867670195	0.7304383637453077	1.7806106958093877	0.2795177253166718	0.5971660478379635	1.8480620002801902	0.33280730111258516	0.6306533959991557	1.8317637453509672	0.24672573748641582	0.8268298704275518	1.8407183191735517	0.11854118393363032	0.4763075241978886	1.0183412613712888	0.10394541414241429	0.4686327355561166	1.4118334095845544	0.07855804874893536	0.7197894400502055	1.7717503591365638	0.0912215488349601	0.6021872058809434	1.8695538238047924	0.04950401835526964	0.6201060599465545	1.841775965413489	0.08938316202332637	0.8044065834952151	1.8271009394818636	0.2068150355655542	0.41969666041992504	0.49788231697768304	0.18734996318937447	0.2846050749745162	0.27655599398708824	0.16556500377704242	0.27571379183400485	0.449113017837812	0.3291712487009367	0.38843883233279153	0.5467294498667344	0.284237324057228	0.36886859672015304	0.7974247415712135	0.09736466732670186	0.34968581527393805	0.6740850676391988	0.043003560392576023	0.4016525002926515	0.5695173255599911	0.03615289539890332	0.38863131178641075	0.5915535869627697	0.03773495337748084	0.381360111471952	0.6306116549464654	0.07587389624696153	0.44851815344041457	0.5046764383514932	0.07408204271316757	0.474430158654633	0.7881654497486045	0.23349975503419187	0.3947411748725873	0.7162058089300765	0.3214438391842148	0.37401794434463864	0.6415262582533211	0.3123931603506483	0.35263999707504123	0.6256742395177729	0.280325843912579	0.4267354259280418	0.7310423075656367
262	4.440677966101695	0.30078762470532827	0.503023080420007	1.0390399090497258	0.2852045320511537	0.4894770691772093	1.419425256212772	0.26928576665473025	0.7481974839640742	1.7899694743928902	0.2804408574926104	0.6002447508648093	1.852500237344925	0.3337276607028468	0.6327600356210595	1.8352822881244346	0.24682605594665163	0.8267140496440919	1.8399022849108653	0.12271852021327181	0.477391701850928	1.0111751475029547	0.10402987012732508	0.46863432921752	1.411736163221531	0.078629655644594	0.7196864033635487	1.7717446585855032	0.0913184889135555	0.6027227252709304	1.8697931780092147	0.04955824380211575	0.6202274158405727	1.8418490006331811	0.09084700547065545	0.8035169892440231	1.822616854154994	0.20199168313570204	0.43205644110619534	0.49747841196998205	0.18947702909386213	0.29471819015057527	0.2712738106773596	0.1606513349592125	0.28748096147943897	0.4483125082095083	0.3292901787072391	0.3884934088951431	0.5467167779657054	0.28939084597792364	0.3556574062080839	0.7933002290051175	0.10468248726680729	0.3490524668808458	0.6738331634554581	0.04354507350947707	0.40654461819990806	0.5800098309245633	0.03636562384764104	0.3912993475247726	0.5883049208834072	0.044349764433463196	0.3724563229244985	0.6239398669957734	0.07915953218709436	0.4513156576951002	0.5082498547578033	0.0743240972700338	0.4715483144842787	0.7813525410779594	0.23805039738107384	0.38036440308260466	0.7157178607630356	0.3238866969577138	0.3521654270085213	0.6352083992403738	0.31271323509306026	0.3488572175240353	0.6235638685227969	0.28430727404770473	0.42995392380528974	0.7343748499667242
263	4.4576271186440675	0.3008305178226042	0.4993339365909362	1.0309452313646852	0.2880401639976579	0.5023699029432734	1.4225346225550493	0.2700572975381103	0.7515830655776652	1.7950509911065695	0.2774495816969062	0.5871478642018082	1.8474750594969103	0.3312096320383494	0.6224545400438606	1.8346907123273646	0.2477640627742124	0.8299671371645558	1.844574263603528	0.11919719766905502	0.47508113029668286	1.0145257924113618	0.10404130536957865	0.46877815729390104	1.4118280236867313	0.07862180010592477	0.7199009355485104	1.7718663959974055	0.09208303980597446	0.6056469885542969	1.8751233140876664	0.04969081307182349	0.620204565196215	1.8418785576195646	0.09100220202284942	0.8039638977900163	1.822855966504993	0.20170420205400957	0.4328871344770467	0.4972522106370203	0.18539177897884915	0.2938491292174752	0.2712190561857514	0.16602231595980027	0.27509212360904645	0.45254170650258874	0.3295818362879253	0.38763245445430955	0.5433456704007353	0.29388605117806993	0.3568570992122396	0.7932866662644229	0.10487207833936792	0.34970056143830314	0.6807719903593825	0.04478285939074974	0.4135632143011358	0.576037786253136	0.040932377967281705	0.4012264087919229	0.5837072310358364	0.04633337799395315	0.38180302125500437	0.6297683125436013	0.07896312971637903	0.4517102236636156	0.5049192899810966	0.0716606263152351	0.46192891391099794	0.7852981204975968	0.23612021439422423	0.3879705351928239	0.7192337215746499	0.321321109020354	0.373091786387303	0.6423744501435332	0.3130333098354723	0.34507443797302934	0.6214534975278209	0.2882887041828305	0.4331724216825377	0.7377073923678118
